<?xml version="1.0" encoding="iso-8859-1"?>
<!-- Generator: Adobe Illustrator 19.0.0, SVG Export Plug-In . SVG Version: 6.00 Build 0)  -->
<svg version="1.1" id="Capa_1" xmlns="http://www.w3.org/2000/svg" xmlns:xlink="http://www.w3.org/1999/xlink" x="0px" y="0px"
	 viewBox="0 0 512 512" style="enable-background:new 0 0 512 512;" xml:space="preserve">
<g>
	<g>
		<path d="M428.337,329.212c-7.223,0-14.034,1.776-20.039,4.9c-6.005-3.123-12.816-4.9-20.039-4.9
			c-24.033,0-43.585,19.552-43.585,43.585s19.552,43.585,43.585,43.585c7.223,0,14.034-1.776,20.039-4.9
			c6.005,3.123,12.816,4.9,20.039,4.9c24.033,0,43.585-19.552,43.585-43.585S452.37,329.212,428.337,329.212z M394.79,400.59
			c-2.099,0.493-4.284,0.763-6.532,0.763c-15.746,0-28.556-12.811-28.556-28.556c0-15.746,12.81-28.556,28.556-28.556
			c2.247,0,4.433,0.27,6.532,0.763c-6.265,7.55-10.039,17.239-10.039,27.793S388.525,393.041,394.79,400.59z M408.297,393.117
			c-5.253-5.181-8.517-12.375-8.517-20.32s3.263-15.138,8.517-20.32c5.253,5.181,8.517,12.375,8.517,20.32
			C416.814,380.741,413.551,387.935,408.297,393.117z M428.337,401.353c-2.247,0-4.433-0.27-6.532-0.763
			c6.265-7.55,10.039-17.239,10.039-27.793s-3.773-20.244-10.039-27.793c2.099-0.493,4.284-0.763,6.532-0.763
			c15.746,0,28.556,12.81,28.556,28.556S444.082,401.353,428.337,401.353z"/>
	</g>
</g>
<g>
	<g>
		<path d="M345.642,140.536l-89.477-50.581l-89.023,51.376l0.036,8.097c0.258,57.98,31.773,111.723,82.248,140.257l7.647,4.321
			l7.61-4.39c50.218-28.982,81.254-83.003,80.995-140.983L345.642,140.536z M257.169,276.598l-0.173,0.1l-0.174-0.098
			c-45.608-25.782-74.154-74.254-74.611-126.614l74.031-42.723l74.407,42.062C330.659,201.687,302.546,250.411,257.169,276.598z"/>
	</g>
</g>
<g>
	<g>
		<polygon points="274.653,163.421 255.806,188.552 245.9,178.648 235.273,189.275 257.432,211.433 286.677,172.439 		"/>
	</g>
</g>
<g>
	<g>
		<path d="M512,176.414v-31.562H375.443c0.208-4.044,0.307-8.107,0.289-12.184l-0.042-9.474L256.011,55.54l-119.072,68.717
			l0.042,9.474c0.017,3.721,0.138,7.427,0.344,11.121H0v80.157v79.155v152.297h159.812v-15.029H15.029V304.163h204.754
			c1.041,0.827,2.09,1.643,3.148,2.452c0.291,0.222,0.584,0.441,0.876,0.662c1.541,1.166,3.099,2.313,4.674,3.442
			c0.697,0.5,1.395,0.999,2.099,1.492c0.722,0.504,1.448,1.005,2.178,1.501c1.12,0.762,2.249,1.515,3.386,2.259
			c0.51,0.333,1.018,0.666,1.531,0.995c1.378,0.885,2.769,1.752,4.171,2.609c0.456,0.278,0.913,0.554,1.371,0.83
			c1.627,0.978,3.264,1.943,4.923,2.88l9.089,5.138l9.042-5.218c1.651-0.953,3.281-1.934,4.903-2.927
			c0.419-0.256,0.838-0.515,1.254-0.773c1.545-0.961,3.081-1.934,4.597-2.931c0.309-0.202,0.611-0.412,0.918-0.615
			c1.219-0.812,2.43-1.634,3.63-2.468c0.61-0.424,1.219-0.849,1.825-1.279c1.018-0.722,2.028-1.456,3.032-2.194
			c1.008-0.74,2.006-1.492,2.999-2.248c0.649-0.495,1.297-0.99,1.94-1.492c0.843-0.656,1.68-1.317,2.512-1.985
			c0.054-0.043,0.109-0.085,0.163-0.129h202.928v137.268H175.843v15.029H512V304.163v-79.155v-32.564h-15.029v32.564H355.71
			c7.366-16.017,12.824-32.977,16.162-50.548c0.001-0.004,0.002-0.009,0.003-0.013c0.324-1.703,0.623-3.414,0.907-5.128
			c0.067-0.404,0.136-0.808,0.2-1.211c0.227-1.424,0.438-2.852,0.636-4.283c0.1-0.715,0.198-1.431,0.292-2.147
			c0.077-0.6,0.171-1.195,0.243-1.797h122.818v16.532H512z M15.029,159.881h123.639c0.093,0.748,0.211,1.492,0.313,2.238
			c0.1,0.733,0.2,1.467,0.308,2.199c0.208,1.432,0.433,2.86,0.669,4.284c0.072,0.434,0.146,0.868,0.221,1.301
			c0.292,1.692,0.6,3.379,0.931,5.059c0.015,0.075,0.03,0.15,0.045,0.225c3.423,17.328,8.905,34.039,16.245,49.82H15.029V159.881z
			 M15.029,289.134v-49.096h150.078c10.134,18.012,22.786,34.559,37.628,49.096H15.029z M496.971,240.038v49.096H310.859
			c14.695-14.563,27.212-31.11,37.224-49.096H496.971z M359.725,153.359c-0.101,1.047-0.209,2.093-0.327,3.137
			c-0.118,1.042-0.244,2.081-0.379,3.12c-0.103,0.806-0.213,1.61-0.326,2.414c-0.174,1.233-0.356,2.466-0.552,3.694
			c-0.086,0.54-0.178,1.078-0.268,1.617c-0.246,1.461-0.5,2.92-0.778,4.373c-0.035,0.185-0.074,0.37-0.109,0.555
			c-8.824,45.488-32.984,86.844-68.35,116.865l-0.574,0.482c-1.951,1.644-3.943,3.246-5.961,4.821
			c-0.495,0.386-0.988,0.773-1.486,1.153c-0.805,0.616-1.615,1.225-2.43,1.831c-0.736,0.546-1.479,1.084-2.223,1.62
			c-0.662,0.478-1.321,0.961-1.99,1.432c-1.371,0.962-2.755,1.908-4.153,2.839c-0.526,0.351-1.058,0.692-1.588,1.038
			c-1.076,0.702-2.159,1.397-3.251,2.08c-0.499,0.313-0.997,0.625-1.499,0.934c-1.544,0.948-3.098,1.884-4.672,2.792
			c-0.018,0.01-0.035,0.021-0.053,0.031l-1.607,0.926l-1.615-0.913c-1.68-0.95-3.34-1.927-4.987-2.921
			c-0.197-0.119-0.396-0.235-0.592-0.355c-1.522-0.925-3.025-1.873-4.518-2.835c-0.324-0.208-0.647-0.416-0.969-0.626
			c-1.388-0.906-2.76-1.829-4.123-2.765c-0.43-0.297-0.859-0.594-1.286-0.893c-1.26-0.881-2.509-1.774-3.746-2.681
			c-0.536-0.394-1.068-0.794-1.6-1.192c-0.923-0.69-1.838-1.391-2.747-2.096c-0.873-0.677-1.738-1.362-2.598-2.052
			c-0.555-0.445-1.106-0.895-1.657-1.345c-1.3-1.065-2.585-2.145-3.855-3.24c-0.221-0.19-0.443-0.381-0.663-0.572
			c-33.615-29.252-56.836-68.881-65.921-112.508c-0.05-0.241-0.097-0.484-0.147-0.726c-0.345-1.685-0.666-3.378-0.969-5.075
			c-0.155-0.879-0.307-1.758-0.451-2.641c-0.159-0.968-0.312-1.938-0.457-2.91c-0.195-1.311-0.381-2.624-0.55-3.942
			c-0.057-0.441-0.118-0.881-0.173-1.323c-0.214-1.758-0.405-3.524-0.574-5.293c-0.591-6.133-0.912-12.319-0.94-18.546l-0.003-0.75
			l104.08-60.065l104.611,59.136l0.003,0.75C360.732,139.664,360.391,146.543,359.725,153.359z"/>
	</g>
</g>
<g>
	<g>
		<path d="M40.078,353.259v47.092h119.233v-47.092H40.078z M144.282,385.322H55.108v-17.033h89.174V385.322z"/>
	</g>
</g>
<g>
	<g>
		<rect x="39.577" y="192.947" width="16.031" height="15.029"/>
	</g>
</g>
<g>
	<g>
		<rect x="71.64" y="192.947" width="48.094" height="15.029"/>
	</g>
</g>
<g>
	<g>
		<rect x="424.329" y="192.947" width="16.031" height="15.029"/>
	</g>
</g>
<g>
	<g>
		<rect x="392.266" y="192.947" width="16.031" height="15.029"/>
	</g>
</g>
<g>
	<g>
		<rect x="456.391" y="192.947" width="16.031" height="15.029"/>
	</g>
</g>
<g>
	<g>
		<rect x="183.859" y="353.26" width="72.141" height="15.029"/>
	</g>
</g>
<g>
	<g>
		<rect x="272.031" y="353.26" width="48.094" height="15.029"/>
	</g>
</g>
<g>
	<g>
		<rect x="247.984" y="385.323" width="72.141" height="15.029"/>
	</g>
</g>
<g>
	<g>
		<rect x="183.859" y="385.323" width="48.094" height="15.029"/>
	</g>
</g>
<g>
</g>
<g>
</g>
<g>
</g>
<g>
</g>
<g>
</g>
<g>
</g>
<g>
</g>
<g>
</g>
<g>
</g>
<g>
</g>
<g>
</g>
<g>
</g>
<g>
</g>
<g>
</g>
<g>
</g>
</svg>
