<?xml version="1.0" encoding="iso-8859-1"?>
<!-- Generator: Adobe Illustrator 19.0.0, SVG Export Plug-In . SVG Version: 6.00 Build 0)  -->
<svg version="1.1" id="Capa_1" xmlns="http://www.w3.org/2000/svg" xmlns:xlink="http://www.w3.org/1999/xlink" x="0px" y="0px"
	 viewBox="0 0 512 512" style="enable-background:new 0 0 512 512;" xml:space="preserve">
<g>
	<g>
		<path d="M472.422,56.11v15.03h24.548v33.065h-89.174V71.139h48.595V56.11h-48.595h-15.03H0V455.89h39.578v-15.03H15.03v-32.313
			h89.174v32.313H55.609v15.03h337.158h15.03H512V56.11H472.422z M496.971,215.421v33.065h-56.555
			c-0.503-11.313-2.024-22.367-4.491-33.065H496.971z M436.253,296.579c2.374-10.704,3.809-21.755,4.22-33.065h56.497v33.065
			H436.253z M496.97,311.609v33.065h-49.096v-33.065H496.97z M79.906,153.049H15.781v-33.065h118.097
			c-10.932,9.815-20.625,20.881-28.957,33.065H79.906z M95.735,168.078c-5.776,10.446-10.565,21.508-14.24,33.065h-1.589v-33.065
			H95.735z M74.401,233.167c-0.042,0.323-0.077,0.648-0.117,0.971c-0.138,1.119-0.269,2.24-0.386,3.362
			c-0.054,0.512-0.1,1.026-0.149,1.538c-0.091,0.945-0.177,1.892-0.253,2.84c-0.048,0.591-0.09,1.182-0.132,1.775
			c-0.063,0.888-0.12,1.775-0.169,2.665c-0.035,0.618-0.067,1.236-0.096,1.855c-0.016,0.355-0.041,0.709-0.055,1.063H15.781v-33.065
			H77.39C76.127,221.782,75.133,227.453,74.401,233.167z M77.39,297.331H15.781v-33.065h57.263c0.014,0.355,0.039,0.709,0.055,1.063
			c0.029,0.62,0.061,1.237,0.096,1.855c0.05,0.889,0.107,1.777,0.169,2.665c0.042,0.592,0.084,1.184,0.132,1.775
			c0.076,0.948,0.162,1.894,0.253,2.84c0.049,0.513,0.096,1.026,0.149,1.538c0.117,1.122,0.248,2.243,0.386,3.362
			c0.04,0.324,0.075,0.649,0.117,0.971C75.132,286.05,76.127,291.722,77.39,297.331z M64.876,168.078v33.065H15.78v-33.065H64.876z
			 M81.456,312.36c3.632,11.457,8.387,22.524,14.205,33.065H15.78V312.36H81.456z M93.274,298.999
			c-0.012-0.047-0.025-0.095-0.038-0.142c-0.305-1.184-0.593-2.375-0.873-3.569c-0.103-0.441-0.202-0.882-0.301-1.322
			c-0.338-1.494-0.653-2.998-0.951-4.507c-0.194-0.987-0.391-1.973-0.567-2.965c-0.139-0.781-0.262-1.567-0.391-2.351
			c-0.157-0.964-0.31-1.927-0.451-2.894c-0.104-0.709-0.204-1.418-0.299-2.129c-0.172-1.299-0.329-2.603-0.471-3.907
			c-0.042-0.383-0.092-0.762-0.131-1.145c-0.172-1.688-0.314-3.38-0.436-5.076c-0.037-0.512-0.066-1.025-0.098-1.537
			c-0.081-1.298-0.149-2.599-0.2-3.9c-0.021-0.514-0.043-1.026-0.059-1.542c-0.054-1.752-0.09-3.506-0.09-5.262
			c0-1.756,0.036-3.51,0.09-5.262c0.016-0.515,0.038-1.029,0.059-1.542c0.052-1.301,0.119-2.602,0.2-3.9
			c0.032-0.513,0.061-1.026,0.098-1.537c0.122-1.695,0.264-3.387,0.436-5.076c0.039-0.383,0.09-0.763,0.131-1.145
			c0.142-1.304,0.299-2.607,0.471-3.907c0.095-0.712,0.195-1.42,0.299-2.129c0.141-0.967,0.293-1.93,0.451-2.894
			c0.129-0.785,0.251-1.57,0.391-2.351c0.176-0.991,0.373-1.977,0.567-2.965c0.298-1.509,0.613-3.012,0.951-4.507
			c0.099-0.441,0.198-0.883,0.301-1.322c0.28-1.194,0.568-2.385,0.873-3.569c0.012-0.047,0.025-0.095,0.038-0.142
			C112.078,141.787,178.242,87.92,256.752,87.92c50.69,0,96.229,22.459,127.202,57.945c4.893,5.687,9.425,11.705,13.564,18.052
			c9.297,14.259,16.348,29.747,20.955,46.035c4.218,14.913,6.357,30.405,6.357,46.049s-2.139,31.136-6.357,46.049
			c-4.607,16.288-11.657,31.775-20.955,46.034c-11.811,18.112-26.763,33.608-44.441,46.055
			C324.56,414.217,290.991,424.83,256,424.83s-68.56-10.613-97.077-30.692l-1.946-1.37h-0.12
			C126.011,370.052,103.132,337.12,93.274,298.999z M432.251,311.609h0.595v33.065h-14.658
			C423.903,334.223,428.633,323.159,432.251,311.609z M431.762,200.391L431.762,200.391c-3.732-11.561-8.579-22.624-14.416-33.065
			h79.624v33.065H431.762z M447.874,119.233h49.096v33.065h-49.096V119.233z M432.846,119.234v33.064h-24.877
			c-3.899-5.628-8.098-11.033-12.585-16.182c-5.136-5.974-10.634-11.615-16.498-16.882H432.846z M119.233,71.139L119.233,71.139
			h273.534v33.065h-33.011C329.123,83.22,293.301,72.142,256,72.142c-37.301,0-73.123,11.08-103.756,32.062h-33.011V71.139z
			 M15.03,71.139h89.174v33.065H15.03V71.139z M64.876,392.767H15.78v-32.313h49.096V392.767z M79.906,392.767v-32.313h25.015
			c8.132,11.893,17.55,22.694,28.132,32.313H79.906z M392.767,440.861H119.233v-32.313h33.899
			c29.525,20.217,65.212,32.062,103.619,32.062c38.878,0,74.969-12.14,104.702-32.814h31.314V440.861z M496.97,440.861h-89.174
			v-33.065h89.174V440.861z M497.723,392.767L497.723,392.767H380.449c10.582-9.618,20.001-20.421,28.133-32.313h89.14V392.767z"/>
	</g>
</g>
<g>
	<g>
		<rect x="240.722" y="257.254" width="16.032" height="15.033"/>
	</g>
</g>
<g>
	<g>
		<rect x="256.755" y="225.19" width="16.032" height="15.033"/>
	</g>
</g>
<g>
	<g>
		<path d="M347.51,245.766l-0.614-6.843h-6.871c-0.612,0-6.208,0.086-14.183,3.048c-5.084,1.889-10.071,4.557-14.832,7.91
			c-0.255-6.902-1.049-15.297-2.957-24.332c-6.515-30.862-22.991-54.437-47.645-68.176l-4.015-2.237l-3.82,2.555
			c-1.843,1.232-41.394,28.202-48.509,74.441c-8.022-5.189-19.299-10.74-30.845-10.74h-6.975l-0.519,6.956
			c-0.051,0.678-1.203,16.837,1.753,37.557c4.037,28.287,13.439,50.554,27.947,66.184c15.391,16.582,36.023,24.99,61.324,24.99
			c27.711,0,49.722-8.706,65.419-25.876C351.884,298.703,347.702,247.912,347.51,245.766z M311.027,321.117
			c-12.73,13.889-30.991,20.932-54.277,20.932c-20.931,0-37.846-6.779-50.274-20.148c-23.262-25.022-25.932-66.937-25.963-84.411
			c10.592,2.901,21.078,10.942,24.844,14.44l12.645,11.815v-17.307c0-38.525,28.813-65.11,39.235-73.463
			c18.569,11.845,30.676,30.404,36.018,55.24c4.406,20.481,2.326,37.732,2.306,37.892l-3.068,23.935l16.115-17.961
			c9.186-10.239,18.145-14.696,24.133-16.636C332.561,270.063,329.764,300.674,311.027,321.117z"/>
	</g>
</g>
<g>
	<g>
		<path d="M256.752,110.017c-80.909,0-146.733,65.824-146.733,146.733s65.824,146.734,146.733,146.734
			s146.734-65.826,146.734-146.734S337.66,110.017,256.752,110.017z M256.752,388.456c-72.623,0-131.705-59.082-131.705-131.705
			s59.082-131.705,131.705-131.705s131.705,59.082,131.705,131.705S329.374,388.456,256.752,388.456z"/>
	</g>
</g>
<g>
</g>
<g>
</g>
<g>
</g>
<g>
</g>
<g>
</g>
<g>
</g>
<g>
</g>
<g>
</g>
<g>
</g>
<g>
</g>
<g>
</g>
<g>
</g>
<g>
</g>
<g>
</g>
<g>
</g>
</svg>
