<?xml version="1.0" encoding="iso-8859-1"?>
<!-- Generator: Adobe Illustrator 19.0.0, SVG Export Plug-In . SVG Version: 6.00 Build 0)  -->
<svg version="1.1" id="Capa_1" xmlns="http://www.w3.org/2000/svg" xmlns:xlink="http://www.w3.org/1999/xlink" x="0px" y="0px"
	 viewBox="0 0 512 512" style="enable-background:new 0 0 512 512;" xml:space="preserve">
<g>
	<g>
		<path d="M312.555,128.125v56.555H287.53v-14.407l3.199,3.199l10.617-10.616l-21.325-21.324l-21.325,21.324l10.617,10.616
			l3.199-3.199v17.911c0,6.347,5.164,11.511,11.511,11.511h32.031c6.347,0,11.511-5.164,11.511-11.511v-60.059H312.555z"/>
	</g>
</g>
<g>
	<g>
		<path d="M207.953,144.641c-12.971,0-23.523,10.552-23.523,23.523c0,12.971,10.552,23.523,23.523,23.523
			c12.971,0,23.523-10.552,23.523-23.523C231.476,155.194,220.923,144.641,207.953,144.641z M207.953,176.673
			c-4.692,0-8.508-3.817-8.508-8.508c0-4.692,3.817-8.508,8.508-8.508s8.508,3.817,8.508,8.508
			C216.461,172.856,212.644,176.673,207.953,176.673z"/>
	</g>
</g>
<g>
	<g>
		<rect x="255.999" y="216.712" width="72.07" height="15.015"/>
	</g>
</g>
<g>
	<g>
		<rect x="255.999" y="248.743" width="16.016" height="15.015"/>
	</g>
</g>
<g>
	<g>
		<rect x="288.031" y="248.743" width="40.039" height="15.015"/>
	</g>
</g>
<g>
	<g>
		<path d="M223.968,200.696h-32.031c-8.555,0-15.515,6.96-15.515,15.515v47.546h63.062v-47.546
			C239.483,207.656,232.524,200.696,223.968,200.696z M224.469,248.743h-33.032v-32.532c0-0.276,0.224-0.5,0.5-0.5h32.031
			c0.276,0,0.501,0.224,0.501,0.5V248.743z"/>
	</g>
</g>
<g>
	<g>
		<rect x="175.921" y="280.774" width="48.047" height="15.015"/>
	</g>
</g>
<g>
	<g>
		<rect x="239.984" y="280.774" width="88.086" height="15.015"/>
	</g>
</g>
<g>
	<g>
		<rect x="280.023" y="312.805" width="48.047" height="15.015"/>
	</g>
</g>
<g>
	<g>
		<rect x="175.921" y="312.805" width="88.086" height="15.015"/>
	</g>
</g>
<g>
	<g>
		<rect x="175.921" y="344.837" width="16.016" height="15.015"/>
	</g>
</g>
<g>
	<g>
		<rect x="207.953" y="344.837" width="16.016" height="15.015"/>
	</g>
</g>
<g>
	<g>
		<rect x="239.984" y="344.837" width="24.023" height="15.015"/>
	</g>
</g>
<g>
	<g>
		<rect x="280.023" y="344.837" width="16.016" height="15.015"/>
	</g>
</g>
<g>
	<g>
		<rect x="312.054" y="344.837" width="16.016" height="15.015"/>
	</g>
</g>
<g>
	<g>
		<rect x="416.156" y="472.962" width="16.016" height="15.015"/>
	</g>
</g>
<g>
	<g>
		<rect x="368.109" y="472.962" width="32.031" height="15.015"/>
	</g>
</g>
<g>
	<g>
		<path d="M463.702,448.938v-184.68h-15.015v184.68h-147.75l-16.016,16.016h-57.843l-16.016-16.016H63.311V219.32l11.617-11.617
			h69.462v9.009H84.726L72.32,229.118V439.93h367.359V229.118l-12.406-12.406h-67.672v-9.009h77.47l11.617,11.617v28.922h15.015
			v-35.14l-20.414-20.414h-83.688V96.594h-32.031V0h-15.015v96.594H191.937v15.015h152.649v273.267H159.405V111.609h16.516V96.594
			H144.39v96.094h-75.68l-20.414,20.414v235.836h-8.008v42.648L60.703,512h27.132v-15.015H66.921l-11.617-11.617v-21.415h149.54
			l16.016,16.016h70.282l16.016-16.016h149.539v21.415l-11.617,11.617H103.851V512h347.446l20.414-20.414v-42.648H463.702z
			 M359.601,399.891V231.726h61.454l3.61,3.609v189.579H87.335V235.336l3.61-3.609h53.446v168.164H359.601z"/>
	</g>
</g>
<g>
	<g>
		<rect x="111.859" y="264.759" width="16.016" height="15.015"/>
	</g>
</g>
<g>
	<g>
		<rect x="95.843" y="304.798" width="16.016" height="15.015"/>
	</g>
</g>
<g>
	<g>
		<rect x="111.859" y="344.837" width="16.016" height="15.015"/>
	</g>
</g>
<g>
	<g>
		<rect x="376.117" y="264.759" width="16.016" height="15.015"/>
	</g>
</g>
<g id="SVGCleanerId_0">
	<g>
		<rect x="392.132" y="304.798" width="16.016" height="15.015"/>
	</g>
</g>
<g>
	<g>
		<rect x="376.117" y="344.837" width="16.016" height="15.015"/>
	</g>
</g>
<g>
	<g>
		<rect x="392.132" y="304.798" width="16.016" height="15.015"/>
	</g>
</g>
<g>
</g>
<g>
</g>
<g>
</g>
<g>
</g>
<g>
</g>
<g>
</g>
<g>
</g>
<g>
</g>
<g>
</g>
<g>
</g>
<g>
</g>
<g>
</g>
<g>
</g>
<g>
</g>
<g>
</g>
</svg>
