<?xml version="1.0" encoding="iso-8859-1"?>
<!-- Generator: Adobe Illustrator 19.0.0, SVG Export Plug-In . SVG Version: 6.00 Build 0)  -->
<svg version="1.1" id="Capa_1" xmlns="http://www.w3.org/2000/svg" xmlns:xlink="http://www.w3.org/1999/xlink" x="0px" y="0px"
	 viewBox="0 0 512 512" style="enable-background:new 0 0 512 512;" xml:space="preserve">
<g>
	<g>
		<polygon points="440.861,95.687 440.861,304.595 191.875,304.595 191.875,319.624 455.89,319.624 455.89,95.687 		"/>
	</g>
</g>
<g>
	<g>
		<path d="M56.11,0v319.624h63.624v-15.029H71.139V63.123h369.722v16.532h15.029V0H56.11z M440.861,48.094H71.139V15.029h369.722
			V48.094z"/>
	</g>
</g>
<g>
	<g>
		<rect x="95.687" y="24.047" width="16.031" height="15.029"/>
	</g>
</g>
<g>
	<g>
		<rect x="127.75" y="24.047" width="16.031" height="15.029"/>
	</g>
</g>
<g>
	<g>
		<rect x="159.812" y="24.047" width="16.031" height="15.029"/>
	</g>
</g>
<g>
	<g>
		<rect x="400.282" y="24.047" width="16.031" height="15.029"/>
	</g>
</g>
<g>
	<g>
		<rect x="87.671" y="96.188" width="64.125" height="15.029"/>
	</g>
</g>
<g>
	<g>
		<rect x="87.671" y="128.25" width="16.031" height="15.029"/>
	</g>
</g>
<g>
	<g>
		<rect x="119.734" y="128.25" width="32.063" height="15.029"/>
	</g>
</g>
<g>
	<g>
		<rect x="135.765" y="160.313" width="16.031" height="15.029"/>
	</g>
</g>
<g>
	<g>
		<rect x="87.671" y="160.313" width="32.063" height="15.029"/>
	</g>
</g>
<g>
	<g>
		<rect x="360.204" y="256.501" width="64.125" height="15.029"/>
	</g>
</g>
<g>
	<g>
		<rect x="360.204" y="224.438" width="16.031" height="15.029"/>
	</g>
</g>
<g>
	<g>
		<rect x="392.266" y="224.438" width="32.063" height="15.029"/>
	</g>
</g>
<g>
	<g>
		<rect x="408.297" y="192.376" width="16.031" height="15.029"/>
	</g>
</g>
<g>
	<g>
		<rect x="360.204" y="192.376" width="32.063" height="15.029"/>
	</g>
</g>
<g>
	<g>
		<path d="M327.106,153.608l-16.107-49.574H201.001l-16.107,49.575c-10.697,32.922,0.932,68.711,28.937,89.058L256,273.305
			l42.169-30.639C326.174,222.32,337.803,186.53,327.106,153.608z M289.336,230.507L256,254.728l-33.336-24.22
			c-22.72-16.507-32.155-45.544-23.477-72.254l12.734-39.19v0.001h88.158l12.734,39.189
			C321.491,184.963,312.056,214,289.336,230.507z"/>
	</g>
</g>
<g>
	<g>
		<rect x="215.922" y="152.297" width="32.063" height="15.029"/>
	</g>
</g>
<g>
	<g>
		<rect x="264.016" y="152.297" width="32.063" height="15.029"/>
	</g>
</g>
<g>
	<g>
		<polygon points="290.764,186.561 279.089,198.236 256,182.843 232.911,198.236 221.236,186.561 210.607,197.188 230.995,217.576 
			256,200.906 281.005,217.576 301.393,197.188 		"/>
	</g>
</g>
<g>
	<g>
		<polygon points="360.204,368.72 360.204,383.75 408.798,383.75 408.798,496.971 167.828,496.971 167.828,512 423.828,512 
			423.828,368.72 		"/>
	</g>
</g>
<g>
	<g>
		<rect x="167.828" y="464.908" width="176.344" height="15.029"/>
	</g>
</g>
<g>
	<g>
		<rect x="360.204" y="464.908" width="32.063" height="15.029"/>
	</g>
</g>
<g>
	<g>
		<rect x="119.734" y="464.908" width="32.063" height="15.029"/>
	</g>
</g>
<g>
	<g>
		<rect x="119.734" y="432.845" width="24.047" height="15.029"/>
	</g>
</g>
<g>
	<g>
		<rect x="167.828" y="432.845" width="16.031" height="15.029"/>
	</g>
</g>
<g>
	<g>
		<rect x="199.89" y="432.845" width="16.031" height="15.029"/>
	</g>
</g>
<g>
	<g>
		<rect x="231.953" y="432.845" width="16.031" height="15.029"/>
	</g>
</g>
<g>
	<g>
		<rect x="264.016" y="432.845" width="16.031" height="15.029"/>
	</g>
</g>
<g>
	<g>
		<rect x="296.078" y="432.845" width="16.031" height="15.029"/>
	</g>
</g>
<g>
	<g>
		<rect x="328.141" y="432.845" width="16.031" height="15.029"/>
	</g>
</g>
<g>
	<g>
		<rect x="167.828" y="400.783" width="16.031" height="15.029"/>
	</g>
</g>
<g>
	<g>
		<rect x="199.89" y="400.783" width="16.031" height="15.029"/>
	</g>
</g>
<g>
	<g>
		<rect x="231.953" y="400.783" width="16.031" height="15.029"/>
	</g>
</g>
<g>
	<g>
		<rect x="264.016" y="400.783" width="16.031" height="15.029"/>
	</g>
</g>
<g>
	<g>
		<rect x="296.078" y="400.783" width="16.031" height="15.029"/>
	</g>
</g>
<g>
	<g>
		<rect x="328.141" y="400.783" width="16.031" height="15.029"/>
	</g>
</g>
<g>
	<g>
		<rect x="360.204" y="400.783" width="16.031" height="15.029"/>
	</g>
</g>
<g>
	<g>
		<rect x="135.765" y="400.783" width="16.031" height="15.029"/>
	</g>
</g>
<g>
	<g>
		<polygon points="384.751,424.329 384.751,432.845 368.219,432.845 368.219,447.875 399.781,447.875 399.781,424.329 		"/>
	</g>
</g>
<g>
	<g>
		<path d="M344.172,383.75V368.72H191.374v-36.819l-40.078-24.047v-37.561c9.308-3.144,16.031-11.953,16.031-22.31
			c0-12.983-10.563-23.546-23.546-23.546s-23.546,10.564-23.546,23.547c0,10.356,6.723,19.165,16.031,22.31v46.071l40.078,24.047
			v28.308H88.172V512h63.624v-15.029h-48.595V383.75H344.172z M143.862,256.001h-0.305c-4.213,0-7.928-3.13-8.266-7.329
			c-0.018-0.226-0.027-0.455-0.027-0.686c0-5.26,4.792-9.421,10.239-8.347c3.303,0.651,5.967,3.31,6.622,6.613
			c0.049,0.245,0.087,0.49,0.114,0.732C152.796,251.834,148.745,256.001,143.862,256.001z"/>
	</g>
</g>
<g>
	<g>
		<rect x="360.705" y="103.703" width="15.029" height="16.031"/>
	</g>
</g>
<g>
	<g>
		<rect x="384.751" y="87.671" width="15.029" height="32.063"/>
	</g>
</g>
<g>
	<g>
		<rect x="408.798" y="79.656" width="15.029" height="40.078"/>
	</g>
</g>
<g>
</g>
<g>
</g>
<g>
</g>
<g>
</g>
<g>
</g>
<g>
</g>
<g>
</g>
<g>
</g>
<g>
</g>
<g>
</g>
<g>
</g>
<g>
</g>
<g>
</g>
<g>
</g>
<g>
</g>
</svg>
