<?xml version="1.0" encoding="iso-8859-1"?>
<!-- Generator: Adobe Illustrator 19.0.0, SVG Export Plug-In . SVG Version: 6.00 Build 0)  -->
<svg version="1.1" id="Capa_1" xmlns="http://www.w3.org/2000/svg" xmlns:xlink="http://www.w3.org/1999/xlink" x="0px" y="0px"
	 viewBox="0 0 512 512" style="enable-background:new 0 0 512 512;" xml:space="preserve">
<g>
	<g>
		<rect x="247.984" y="264.517" width="16.031" height="15.029"/>
	</g>
</g>
<g>
	<g>
		<rect x="224.438" y="47.593" width="15.029" height="24.047"/>
	</g>
</g>
<g>
	<g>
		<rect x="272.532" y="47.593" width="15.029" height="24.047"/>
	</g>
</g>
<g>
	<g>
		<rect x="247.984" y="296.579" width="16.031" height="15.029"/>
	</g>
</g>
<g>
	<g>
		<rect x="247.984" y="328.642" width="16.031" height="15.029"/>
	</g>
</g>
<g>
	<g>
		<rect x="247.984" y="360.704" width="16.031" height="15.029"/>
	</g>
</g>
<g>
	<g>
		<polygon points="405.595,249.978 394.968,239.35 388.946,245.373 382.924,239.35 372.296,249.978 378.319,256 372.296,262.022 
			382.924,272.65 388.946,266.627 394.968,272.65 405.595,262.022 399.573,256 		"/>
	</g>
</g>
<g>
	<g>
		<polygon points="139.704,249.978 129.076,239.35 123.054,245.373 117.032,239.35 106.405,249.978 112.427,256 106.405,262.022 
			117.032,272.65 123.054,266.627 129.076,272.65 139.704,262.022 133.681,256 		"/>
	</g>
</g>
<g>
	<g>
		<path d="M275.143,176.344h-38.288l-20.433,20.434v56.11v154.909h79.155V252.888v-56.11L275.143,176.344z M280.548,392.767h-49.096
			V259.112l19.644-19.644h9.807l19.644,19.644V392.767z M280.548,237.858l-13.419-13.419h-22.256l-13.42,13.42v-34.855l11.629-11.63
			h25.839l11.629,11.629V237.858z"/>
	</g>
</g>
<g>
	<g>
		<path d="M475.535,208.407H335.656v-67.738l-12.418-12.418h-3.613V0H192.376v31.562h15.029V15.029h41.08v24.548h15.029V15.029
			h41.08V128.25h-41.08V79.656h-15.029v48.595h-41.08V47.593h-15.029v80.658h-3.613l-12.418,12.418v67.738H36.465l-12.418,12.418
			v70.35l12.418,12.417h139.879v168.329h8.016v27.66L196.778,512h118.444l12.417-12.418v-27.66h8.016v-47.593h-15.029v32.564
			H191.374V146.893l3.613-3.613h122.025l3.613,3.613v261.405h15.029V303.593h139.879l12.419-12.418v-70.35L475.535,208.407z
			 M176.344,240.177l-5.196,5.196l-6.022-6.022L154.5,249.978l6.022,6.022l-6.022,6.022l10.627,10.627l6.022-6.022l5.196,5.196
			v16.741H42.689l-3.613-3.613v-57.9l3.613-3.614h133.655V240.177z M199.389,471.922h113.221v21.436l-3.613,3.613H203.003
			l-3.613-3.613V471.922z M469.311,288.564H335.656v-16.741l5.196-5.196l6.022,6.022l10.627-10.627L351.478,256l6.022-6.022
			l-10.627-10.627l-6.022,6.022l-5.196-5.196v-16.741h133.655l3.613,3.613v57.901h0L469.311,288.564z"/>
	</g>
</g>
<g>
	<g>
		<polygon points="457.01,249.978 446.382,239.35 440.36,245.373 434.338,239.35 423.711,249.978 429.733,256 423.711,262.022 
			434.338,272.65 440.36,266.627 446.382,272.65 457.01,262.022 450.987,256 		"/>
	</g>
</g>
<g>
	<g>
		<polygon points="88.289,249.978 77.662,239.35 71.64,245.373 65.618,239.35 54.99,249.978 61.013,256 54.99,262.022 
			65.618,272.65 71.64,266.627 77.662,272.65 88.289,262.022 82.267,256 		"/>
	</g>
</g>
<g>
	<g>
		<rect x="288.063" y="424.83" width="16.031" height="15.029"/>
	</g>
</g>
<g>
	<g>
		<rect x="207.906" y="424.83" width="16.031" height="15.029"/>
	</g>
</g>
<g>
</g>
<g>
</g>
<g>
</g>
<g>
</g>
<g>
</g>
<g>
</g>
<g>
</g>
<g>
</g>
<g>
</g>
<g>
</g>
<g>
</g>
<g>
</g>
<g>
</g>
<g>
</g>
<g>
</g>
</svg>
