<?xml version="1.0" encoding="iso-8859-1"?>
<!-- Generator: Adobe Illustrator 19.0.0, SVG Export Plug-In . SVG Version: 6.00 Build 0)  -->
<svg version="1.1" id="Capa_1" xmlns="http://www.w3.org/2000/svg" xmlns:xlink="http://www.w3.org/1999/xlink" x="0px" y="0px"
	 viewBox="0 0 512 512" style="enable-background:new 0 0 512 512;" xml:space="preserve">
<g>
	<g>
		<path d="M235.066,432.845H132.653l-12.418,12.417v22.256l12.418,12.418h102.412l12.418-12.417v-22.256L235.066,432.845z
			 M232.453,461.295l-3.613,3.613h-89.963l-3.613-3.614v-9.806l3.614-3.613h89.963l3.612,3.614V461.295z"/>
	</g>
</g>
<g>
	<g>
		<polygon points="304.595,480.438 304.595,496.971 63.123,496.971 63.123,63.624 48.094,63.624 48.094,512 319.624,512 
			319.624,480.438 		"/>
	</g>
</g>
<g>
	<g>
		<path d="M451.488,224.438H357.09l-12.417,12.418v19.644h-25.049V0H48.094v47.593h15.029V15.029h241.472v241.472h-9.018V48.094
			H72.141v367.718h223.436V295.577h9.018v168.83h15.029v-168.83h25.049v19.644l12.418,12.418h94.397l12.417-12.418v-78.366
			L451.488,224.438z M280.548,400.783H87.17V63.123h193.378v193.378h-25.049V212.81l-12.418-12.418h-11.629v-50.599
			c0-20.718-16.855-37.573-37.573-37.573H173.84c-20.718,0-37.573,16.855-37.573,37.573v50.599h-11.629l-12.418,12.418v126.461
			l12.418,12.416h118.444l12.417-12.417v-43.692h25.049V400.783z M191.374,312.11v-16.532h17.033v24.548h15.029v-24.548h17.033
			v37.467l-3.613,3.613H130.862l-3.613-3.613V219.034l3.613-3.613h105.994l3.613,3.613v37.467h-64.124v31.562v7.515v16.532H191.374z
			 M151.295,200.391v-50.599c0-12.431,10.114-22.544,22.544-22.544h20.039c12.43,0,22.544,10.113,22.544,22.544v50.599H151.295z
			 M344.673,280.548H191.374v-9.018h153.299V280.548z M445.264,312.611h-81.947l-3.614-3.613v-13.42v-39.076v-13.42l3.613-3.613
			h81.947l3.613,3.613v65.917h0.001L445.264,312.611z"/>
	</g>
</g>
<g>
	<g>
		<rect x="416.814" y="247.984" width="15.029" height="16.031"/>
	</g>
</g>
<g>
	<g>
		<rect x="416.814" y="288.063" width="15.029" height="16.031"/>
	</g>
</g>
<g>
	<g>
		<rect x="376.235" y="264.517" width="16.031" height="15.029"/>
	</g>
</g>
<g>
	<g>
		<polygon points="136.266,224.438 136.266,280.047 151.295,280.047 151.295,239.468 167.828,239.468 167.828,224.438 		"/>
	</g>
</g>
<g>
	<g>
		<rect x="183.859" y="224.438" width="16.031" height="15.029"/>
	</g>
</g>
<g>
	<g>
		<rect x="135.765" y="296.579" width="16.031" height="15.029"/>
	</g>
</g>
<g>
	<g>
		<rect x="231.953" y="80.157" width="32.063" height="15.029"/>
	</g>
</g>
<g>
	<g>
		<rect x="199.89" y="80.157" width="16.031" height="15.029"/>
	</g>
</g>
<g>
	<g>
		<rect x="215.922" y="24.047" width="16.031" height="15.029"/>
	</g>
</g>
<g>
	<g>
		<rect x="175.843" y="24.047" width="16.031" height="15.029"/>
	</g>
</g>
<g>
	<g>
		<rect x="135.765" y="24.047" width="16.031" height="15.029"/>
	</g>
</g>
<g>
</g>
<g>
</g>
<g>
</g>
<g>
</g>
<g>
</g>
<g>
</g>
<g>
</g>
<g>
</g>
<g>
</g>
<g>
</g>
<g>
</g>
<g>
</g>
<g>
</g>
<g>
</g>
<g>
</g>
</svg>
